<mxfile host="Electron" agent="Mozilla/5.0 (Macintosh; Intel Mac OS X 10_15_7) AppleWebKit/537.36 (KHTML, like Gecko) draw.io/28.0.4 Chrome/138.0.7204.97 Electron/37.2.1 Safari/537.36" version="28.0.4" pages="3">
  <diagram name="High level architecture" id="LxkDWcwQ9xdXdDk9w4zx">
    <mxGraphModel dx="2036" dy="952" grid="0" gridSize="10" guides="1" tooltips="1" connect="1" arrows="1" fold="1" page="0" pageScale="1" pageWidth="827" pageHeight="1169" math="0" shadow="0">
      <root>
        <mxCell id="0" />
        <mxCell id="1" parent="0" />
        <mxCell id="Dx-IwjdV3NHCHEe5ZWhF-5" value="PODMAN (LOCAL DEV ENVIRONMENT)&lt;br&gt;3 x containers architecture" style="rounded=1;whiteSpace=wrap;html=1;verticalAlign=top;arcSize=5;fillColor=#0050ef;strokeColor=#FFFFFF;fontColor=#ffffff;fontSize=22;fontStyle=1" parent="1" vertex="1">
          <mxGeometry x="-40" y="160" width="1360" height="760" as="geometry" />
        </mxCell>
        <mxCell id="Dx-IwjdV3NHCHEe5ZWhF-1" value="ATLASSIAN CONFLUENCE (v8.5)" style="rounded=1;whiteSpace=wrap;html=1;verticalAlign=top;arcSize=5;fontStyle=1;fontSize=20;" parent="1" vertex="1">
          <mxGeometry x="40" y="240" width="720" height="520" as="geometry" />
        </mxCell>
        <mxCell id="Dx-IwjdV3NHCHEe5ZWhF-3" value="&lt;b&gt;&lt;font style=&quot;font-size: 20px;&quot;&gt;POSTGRES (v14)&lt;br&gt;&lt;/font&gt;&lt;/b&gt;&lt;br&gt;DATABASE SERVICE&lt;br&gt;(Standard SQL RDBMS)" style="rounded=1;whiteSpace=wrap;html=1;verticalAlign=middle;arcSize=5;" parent="1" vertex="1">
          <mxGeometry x="800" y="240" width="320" height="230" as="geometry" />
        </mxCell>
        <mxCell id="Dx-IwjdV3NHCHEe5ZWhF-4" value="&lt;b&gt;&lt;font style=&quot;font-size: 20px;&quot;&gt;MAILHOG&lt;br&gt;&lt;br&gt;&lt;/font&gt;&lt;/b&gt;SMTP SERVICE&lt;br&gt;+MAIL VIEWER" style="rounded=1;whiteSpace=wrap;html=1;verticalAlign=middle;arcSize=5;" parent="1" vertex="1">
          <mxGeometry x="800" y="530" width="320" height="230" as="geometry" />
        </mxCell>
        <mxCell id="Dx-IwjdV3NHCHEe5ZWhF-6" value="ADAPTAVIST SCRIPTRUNNER (v8.48)" style="rounded=1;whiteSpace=wrap;html=1;verticalAlign=top;arcSize=5;fillColor=#6a00ff;strokeColor=#3700CC;fontColor=#ffffff;fontStyle=1;fontSize=20;" parent="1" vertex="1">
          <mxGeometry x="90" y="310" width="620" height="300" as="geometry" />
        </mxCell>
        <mxCell id="Dx-IwjdV3NHCHEe5ZWhF-12" style="edgeStyle=orthogonalEdgeStyle;rounded=0;orthogonalLoop=1;jettySize=auto;html=1;exitX=1;exitY=0.5;exitDx=0;exitDy=0;strokeWidth=3;" parent="1" source="Dx-IwjdV3NHCHEe5ZWhF-7" target="Dx-IwjdV3NHCHEe5ZWhF-4" edge="1">
          <mxGeometry relative="1" as="geometry">
            <Array as="points">
              <mxPoint x="740" y="685" />
              <mxPoint x="740" y="635" />
            </Array>
          </mxGeometry>
        </mxCell>
        <mxCell id="Dx-IwjdV3NHCHEe5ZWhF-7" value="CONFLUENCE MAIL SERVICE" style="rounded=1;whiteSpace=wrap;html=1;verticalAlign=middle;arcSize=5;fillColor=#1ba1e2;fontColor=#ffffff;strokeColor=#006EAF;" parent="1" vertex="1">
          <mxGeometry x="440" y="630" width="270" height="110" as="geometry" />
        </mxCell>
        <mxCell id="Dx-IwjdV3NHCHEe5ZWhF-16" style="edgeStyle=orthogonalEdgeStyle;rounded=0;orthogonalLoop=1;jettySize=auto;html=1;exitX=0.5;exitY=0;exitDx=0;exitDy=0;strokeWidth=3;" parent="1" source="Dx-IwjdV3NHCHEe5ZWhF-8" target="Dx-IwjdV3NHCHEe5ZWhF-11" edge="1">
          <mxGeometry relative="1" as="geometry">
            <Array as="points">
              <mxPoint x="225" y="619" />
              <mxPoint x="295" y="619" />
            </Array>
          </mxGeometry>
        </mxCell>
        <mxCell id="Dx-IwjdV3NHCHEe5ZWhF-17" style="edgeStyle=orthogonalEdgeStyle;rounded=0;orthogonalLoop=1;jettySize=auto;html=1;exitX=1;exitY=0.5;exitDx=0;exitDy=0;entryX=0;entryY=0.5;entryDx=0;entryDy=0;strokeWidth=3;" parent="1" source="Dx-IwjdV3NHCHEe5ZWhF-8" target="Dx-IwjdV3NHCHEe5ZWhF-7" edge="1">
          <mxGeometry relative="1" as="geometry" />
        </mxCell>
        <mxCell id="Dx-IwjdV3NHCHEe5ZWhF-8" value="CONFLUENCE USERS / AUTH" style="rounded=1;whiteSpace=wrap;html=1;verticalAlign=middle;arcSize=5;fillColor=#1ba1e2;fontColor=#ffffff;strokeColor=#006EAF;" parent="1" vertex="1">
          <mxGeometry x="90" y="630" width="270" height="110" as="geometry" />
        </mxCell>
        <mxCell id="Dx-IwjdV3NHCHEe5ZWhF-15" style="edgeStyle=orthogonalEdgeStyle;rounded=0;orthogonalLoop=1;jettySize=auto;html=1;exitX=1;exitY=0.5;exitDx=0;exitDy=0;strokeWidth=3;" parent="1" source="Dx-IwjdV3NHCHEe5ZWhF-9" target="Dx-IwjdV3NHCHEe5ZWhF-3" edge="1">
          <mxGeometry relative="1" as="geometry" />
        </mxCell>
        <mxCell id="Dx-IwjdV3NHCHEe5ZWhF-9" value="&lt;b&gt;RESOURCE: &lt;/b&gt;&lt;br&gt;DB CONNECTION" style="rounded=1;whiteSpace=wrap;html=1;verticalAlign=middle;arcSize=5;fillColor=#d80073;fontColor=#ffffff;strokeColor=#A50040;" parent="1" vertex="1">
          <mxGeometry x="520" y="350" width="170" height="100" as="geometry" />
        </mxCell>
        <mxCell id="Dx-IwjdV3NHCHEe5ZWhF-14" style="edgeStyle=orthogonalEdgeStyle;rounded=0;orthogonalLoop=1;jettySize=auto;html=1;exitX=0.5;exitY=0;exitDx=0;exitDy=0;entryX=0.5;entryY=1;entryDx=0;entryDy=0;strokeWidth=3;" parent="1" source="Dx-IwjdV3NHCHEe5ZWhF-10" target="Dx-IwjdV3NHCHEe5ZWhF-9" edge="1">
          <mxGeometry relative="1" as="geometry" />
        </mxCell>
        <mxCell id="Dx-IwjdV3NHCHEe5ZWhF-18" style="edgeStyle=orthogonalEdgeStyle;rounded=0;orthogonalLoop=1;jettySize=auto;html=1;exitX=0.5;exitY=1;exitDx=0;exitDy=0;strokeWidth=3;" parent="1" source="Dx-IwjdV3NHCHEe5ZWhF-10" target="Dx-IwjdV3NHCHEe5ZWhF-7" edge="1">
          <mxGeometry relative="1" as="geometry">
            <Array as="points">
              <mxPoint x="605" y="619" />
              <mxPoint x="575" y="619" />
            </Array>
          </mxGeometry>
        </mxCell>
        <mxCell id="Dx-IwjdV3NHCHEe5ZWhF-10" value="&lt;b&gt;API:&lt;/b&gt;&lt;div&gt;REST ENDPOINTS&lt;/div&gt;" style="rounded=1;whiteSpace=wrap;html=1;verticalAlign=middle;arcSize=5;fillColor=#d80073;fontColor=#ffffff;strokeColor=#A50040;" parent="1" vertex="1">
          <mxGeometry x="520" y="490" width="170" height="100" as="geometry" />
        </mxCell>
        <mxCell id="Dx-IwjdV3NHCHEe5ZWhF-13" style="edgeStyle=orthogonalEdgeStyle;rounded=0;orthogonalLoop=1;jettySize=auto;html=1;exitX=1;exitY=0.5;exitDx=0;exitDy=0;entryX=0;entryY=0.5;entryDx=0;entryDy=0;strokeWidth=3;" parent="1" source="Dx-IwjdV3NHCHEe5ZWhF-11" target="Dx-IwjdV3NHCHEe5ZWhF-10" edge="1">
          <mxGeometry relative="1" as="geometry" />
        </mxCell>
        <mxCell id="Dx-IwjdV3NHCHEe5ZWhF-11" value="&lt;b&gt;GRAPHIC USER INTERFACE:&amp;nbsp;&lt;/b&gt;&lt;div&gt;&lt;b&gt;&lt;br&gt;&lt;/b&gt;1. GROOVY MACROS (HTML)&lt;div&gt;2. JAVASCRIPT INTERACTIVE LAYER&lt;/div&gt;&lt;div&gt;3. CSS STYLING&lt;/div&gt;&lt;/div&gt;" style="rounded=1;whiteSpace=wrap;html=1;verticalAlign=middle;arcSize=5;fillColor=#d80073;fontColor=#ffffff;strokeColor=#A50040;" parent="1" vertex="1">
          <mxGeometry x="120" y="350" width="350" height="240" as="geometry" />
        </mxCell>
        <mxCell id="0rwVJ0jBQ0QZUECnq9Dp-1" style="edgeStyle=orthogonalEdgeStyle;rounded=0;orthogonalLoop=1;jettySize=auto;html=1;exitX=1;exitY=0.5;exitDx=0;exitDy=0;strokeWidth=3;dashed=1;strokeColor=#FFFFFF;" parent="1" source="Dx-IwjdV3NHCHEe5ZWhF-20" target="Dx-IwjdV3NHCHEe5ZWhF-3" edge="1">
          <mxGeometry relative="1" as="geometry">
            <Array as="points">
              <mxPoint x="1140" y="840" />
              <mxPoint x="1140" y="510" />
              <mxPoint x="960" y="510" />
            </Array>
          </mxGeometry>
        </mxCell>
        <mxCell id="Dx-IwjdV3NHCHEe5ZWhF-20" value="Provisioning scripts: Bash + Ansible + Liquibase&amp;nbsp;&lt;br&gt;(Infrastructure as code + SQL migrations)" style="rounded=1;whiteSpace=wrap;html=1;verticalAlign=middle;arcSize=5;fillColor=#1ba1e2;fontColor=#ffffff;strokeColor=#006EAF;fontSize=18;" parent="1" vertex="1">
          <mxGeometry x="40" y="800" width="1080" height="80" as="geometry" />
        </mxCell>
        <mxCell id="Dx-IwjdV3NHCHEe5ZWhF-21" style="edgeStyle=orthogonalEdgeStyle;rounded=0;orthogonalLoop=1;jettySize=auto;html=1;exitX=0.25;exitY=0;exitDx=0;exitDy=0;entryX=0.375;entryY=0.996;entryDx=0;entryDy=0;entryPerimeter=0;strokeWidth=3;dashed=1;strokeColor=#FFFFFF;" parent="1" source="Dx-IwjdV3NHCHEe5ZWhF-20" target="Dx-IwjdV3NHCHEe5ZWhF-1" edge="1">
          <mxGeometry relative="1" as="geometry" />
        </mxCell>
        <mxCell id="Dx-IwjdV3NHCHEe5ZWhF-22" style="edgeStyle=orthogonalEdgeStyle;rounded=0;orthogonalLoop=1;jettySize=auto;html=1;exitX=0.75;exitY=0;exitDx=0;exitDy=0;entryX=0.159;entryY=0.991;entryDx=0;entryDy=0;entryPerimeter=0;strokeWidth=3;dashed=1;strokeColor=#FFFFFF;" parent="1" source="Dx-IwjdV3NHCHEe5ZWhF-20" target="Dx-IwjdV3NHCHEe5ZWhF-4" edge="1">
          <mxGeometry relative="1" as="geometry" />
        </mxCell>
        <mxCell id="Dx-IwjdV3NHCHEe5ZWhF-24" style="edgeStyle=orthogonalEdgeStyle;rounded=0;orthogonalLoop=1;jettySize=auto;html=1;exitX=0;exitY=0.5;exitDx=0;exitDy=0;entryX=1;entryY=0.25;entryDx=0;entryDy=0;strokeWidth=3;strokeColor=#FFFFFF;" parent="1" source="Dx-IwjdV3NHCHEe5ZWhF-23" target="Dx-IwjdV3NHCHEe5ZWhF-3" edge="1">
          <mxGeometry relative="1" as="geometry" />
        </mxCell>
        <mxCell id="Dx-IwjdV3NHCHEe5ZWhF-23" value="&lt;b&gt;SYNTHETIC DATA&lt;/b&gt;&lt;br&gt;&lt;br&gt;Generation scripts&lt;br&gt;+ Tests&lt;br&gt;&lt;br&gt;(FAKER library)" style="rounded=1;whiteSpace=wrap;html=1;verticalAlign=middle;arcSize=5;fillColor=#1ba1e2;fontColor=#ffffff;strokeColor=#006EAF;" parent="1" vertex="1">
          <mxGeometry x="1172" y="238" width="140" height="100" as="geometry" />
        </mxCell>
        <mxCell id="4PNvxHKbthOya2PLhahY-3" style="edgeStyle=orthogonalEdgeStyle;rounded=0;orthogonalLoop=1;jettySize=auto;html=1;exitX=0;exitY=0.5;exitDx=0;exitDy=0;entryX=1;entryY=0.75;entryDx=0;entryDy=0;strokeWidth=3;strokeColor=#FFFFFF;" edge="1" parent="1" source="4PNvxHKbthOya2PLhahY-2" target="Dx-IwjdV3NHCHEe5ZWhF-3">
          <mxGeometry relative="1" as="geometry" />
        </mxCell>
        <mxCell id="4PNvxHKbthOya2PLhahY-2" value="&lt;b&gt;PROD DATA&lt;/b&gt;&lt;br&gt;&lt;br&gt;Import Scripts&lt;br&gt;&lt;br&gt;(CSV + HTML)" style="rounded=1;whiteSpace=wrap;html=1;verticalAlign=middle;arcSize=5;fillColor=#1ba1e2;fontColor=#ffffff;strokeColor=#006EAF;" vertex="1" parent="1">
          <mxGeometry x="1172" y="370" width="140" height="100" as="geometry" />
        </mxCell>
      </root>
    </mxGraphModel>
  </diagram>
  <diagram id="SSLR2j2kNBWK9VlGiIou" name="High level data model">
    <mxGraphModel dx="2763" dy="1479" grid="0" gridSize="10" guides="1" tooltips="1" connect="1" arrows="1" fold="1" page="0" pageScale="1" pageWidth="827" pageHeight="1169" math="0" shadow="0">
      <root>
        <mxCell id="0" />
        <mxCell id="1" parent="0" />
        <mxCell id="u8U4KRxFFCjfjTRPUa0_-1" value="&lt;b&gt;MIGRATION&lt;/b&gt;&amp;nbsp;&lt;br&gt;(ex: VICTORIA)" style="rounded=1;whiteSpace=wrap;html=1;" parent="1" vertex="1">
          <mxGeometry x="-480" y="80" width="120" height="60" as="geometry" />
        </mxCell>
        <mxCell id="u8U4KRxFFCjfjTRPUa0_-2" value="CANONICAL LAYER" style="text;html=1;align=left;verticalAlign=middle;whiteSpace=wrap;rounded=0;fontStyle=1;fontSize=19;" parent="1" vertex="1">
          <mxGeometry x="-730" y="75" width="200" height="30" as="geometry" />
        </mxCell>
        <mxCell id="u8U4KRxFFCjfjTRPUa0_-3" value="CORE ENTITIES" style="text;html=1;align=left;verticalAlign=middle;whiteSpace=wrap;rounded=0;fontStyle=1;fontSize=19;" parent="1" vertex="1">
          <mxGeometry x="-730" y="-230" width="200" height="30" as="geometry" />
        </mxCell>
        <mxCell id="u8U4KRxFFCjfjTRPUa0_-17" style="edgeStyle=orthogonalEdgeStyle;rounded=0;orthogonalLoop=1;jettySize=auto;html=1;exitX=1;exitY=0.5;exitDx=0;exitDy=0;entryX=0;entryY=0.5;entryDx=0;entryDy=0;endArrow=none;endFill=0;" parent="1" source="u8U4KRxFFCjfjTRPUa0_-4" target="u8U4KRxFFCjfjTRPUa0_-5" edge="1">
          <mxGeometry relative="1" as="geometry" />
        </mxCell>
        <mxCell id="u8U4KRxFFCjfjTRPUa0_-18" value="n-n" style="edgeLabel;html=1;align=center;verticalAlign=middle;resizable=0;points=[];" parent="u8U4KRxFFCjfjTRPUa0_-17" vertex="1" connectable="0">
          <mxGeometry x="0.025" y="-3" relative="1" as="geometry">
            <mxPoint as="offset" />
          </mxGeometry>
        </mxCell>
        <mxCell id="u8U4KRxFFCjfjTRPUa0_-69" style="edgeStyle=orthogonalEdgeStyle;rounded=0;orthogonalLoop=1;jettySize=auto;html=1;exitX=0.5;exitY=1;exitDx=0;exitDy=0;entryX=0.5;entryY=0;entryDx=0;entryDy=0;" parent="1" source="u8U4KRxFFCjfjTRPUa0_-4" target="u8U4KRxFFCjfjTRPUa0_-68" edge="1">
          <mxGeometry relative="1" as="geometry" />
        </mxCell>
        <mxCell id="u8U4KRxFFCjfjTRPUa0_-70" value="n-1" style="edgeLabel;html=1;align=center;verticalAlign=middle;resizable=0;points=[];" parent="u8U4KRxFFCjfjTRPUa0_-69" vertex="1" connectable="0">
          <mxGeometry x="-0.0333" y="-1" relative="1" as="geometry">
            <mxPoint as="offset" />
          </mxGeometry>
        </mxCell>
        <mxCell id="u8U4KRxFFCjfjTRPUa0_-4" value="&lt;b&gt;USERS&lt;/b&gt;&lt;br&gt;(ex: GUQ)" style="rounded=1;whiteSpace=wrap;html=1;" parent="1" vertex="1">
          <mxGeometry x="-480" y="-240" width="120" height="60" as="geometry" />
        </mxCell>
        <mxCell id="u8U4KRxFFCjfjTRPUa0_-19" style="edgeStyle=orthogonalEdgeStyle;rounded=0;orthogonalLoop=1;jettySize=auto;html=1;exitX=1;exitY=0.5;exitDx=0;exitDy=0;endArrow=none;endFill=0;" parent="1" source="u8U4KRxFFCjfjTRPUa0_-5" target="u8U4KRxFFCjfjTRPUa0_-7" edge="1">
          <mxGeometry relative="1" as="geometry" />
        </mxCell>
        <mxCell id="u8U4KRxFFCjfjTRPUa0_-20" value="1-n" style="edgeLabel;html=1;align=center;verticalAlign=middle;resizable=0;points=[];" parent="u8U4KRxFFCjfjTRPUa0_-19" vertex="1" connectable="0">
          <mxGeometry x="-0.2" y="4" relative="1" as="geometry">
            <mxPoint as="offset" />
          </mxGeometry>
        </mxCell>
        <mxCell id="u8U4KRxFFCjfjTRPUa0_-5" value="&lt;b&gt;TEAMS&lt;/b&gt;&lt;br&gt;(ex: Core Banking)" style="rounded=1;whiteSpace=wrap;html=1;" parent="1" vertex="1">
          <mxGeometry x="-280" y="-240" width="120" height="60" as="geometry" />
        </mxCell>
        <mxCell id="u8U4KRxFFCjfjTRPUa0_-6" value="&lt;b&gt;ENVIRONMENTS&lt;/b&gt;&lt;br&gt;(ex: EV4)" style="rounded=1;whiteSpace=wrap;html=1;" parent="1" vertex="1">
          <mxGeometry x="-80" y="-160" width="120" height="60" as="geometry" />
        </mxCell>
        <mxCell id="u8U4KRxFFCjfjTRPUa0_-21" style="edgeStyle=orthogonalEdgeStyle;rounded=0;orthogonalLoop=1;jettySize=auto;html=1;exitX=1;exitY=0.5;exitDx=0;exitDy=0;entryX=0;entryY=0.5;entryDx=0;entryDy=0;endArrow=none;endFill=0;" parent="1" source="u8U4KRxFFCjfjTRPUa0_-7" target="u8U4KRxFFCjfjTRPUa0_-8" edge="1">
          <mxGeometry relative="1" as="geometry" />
        </mxCell>
        <mxCell id="u8U4KRxFFCjfjTRPUa0_-22" value="n-n" style="edgeLabel;html=1;align=center;verticalAlign=middle;resizable=0;points=[];" parent="u8U4KRxFFCjfjTRPUa0_-21" vertex="1" connectable="0">
          <mxGeometry x="-0.2" y="1" relative="1" as="geometry">
            <mxPoint as="offset" />
          </mxGeometry>
        </mxCell>
        <mxCell id="u8U4KRxFFCjfjTRPUa0_-23" style="edgeStyle=orthogonalEdgeStyle;rounded=0;orthogonalLoop=1;jettySize=auto;html=1;exitX=0.5;exitY=1;exitDx=0;exitDy=0;entryX=0.5;entryY=0;entryDx=0;entryDy=0;endArrow=none;endFill=0;" parent="1" source="u8U4KRxFFCjfjTRPUa0_-7" target="u8U4KRxFFCjfjTRPUa0_-6" edge="1">
          <mxGeometry relative="1" as="geometry" />
        </mxCell>
        <mxCell id="u8U4KRxFFCjfjTRPUa0_-24" value="n-n" style="edgeLabel;html=1;align=center;verticalAlign=middle;resizable=0;points=[];" parent="u8U4KRxFFCjfjTRPUa0_-23" vertex="1" connectable="0">
          <mxGeometry x="0.075" y="-1" relative="1" as="geometry">
            <mxPoint as="offset" />
          </mxGeometry>
        </mxCell>
        <mxCell id="u8U4KRxFFCjfjTRPUa0_-7" value="&lt;b&gt;APPLICATIONS&lt;/b&gt;&lt;br&gt;(ex: ATLAS)" style="rounded=1;whiteSpace=wrap;html=1;" parent="1" vertex="1">
          <mxGeometry x="-80" y="-300" width="120" height="60" as="geometry" />
        </mxCell>
        <mxCell id="u8U4KRxFFCjfjTRPUa0_-8" value="&lt;b&gt;LABELS&lt;/b&gt;" style="rounded=1;whiteSpace=wrap;html=1;" parent="1" vertex="1">
          <mxGeometry x="120" y="-300" width="120" height="60" as="geometry" />
        </mxCell>
        <mxCell id="u8U4KRxFFCjfjTRPUa0_-25" style="edgeStyle=orthogonalEdgeStyle;rounded=0;orthogonalLoop=1;jettySize=auto;html=1;exitX=0;exitY=0.5;exitDx=0;exitDy=0;entryX=1;entryY=0.5;entryDx=0;entryDy=0;" parent="1" source="u8U4KRxFFCjfjTRPUa0_-9" target="u8U4KRxFFCjfjTRPUa0_-1" edge="1">
          <mxGeometry relative="1" as="geometry" />
        </mxCell>
        <mxCell id="u8U4KRxFFCjfjTRPUa0_-26" value="1-n" style="edgeLabel;html=1;align=center;verticalAlign=middle;resizable=0;points=[];" parent="u8U4KRxFFCjfjTRPUa0_-25" vertex="1" connectable="0">
          <mxGeometry x="0.05" relative="1" as="geometry">
            <mxPoint as="offset" />
          </mxGeometry>
        </mxCell>
        <mxCell id="u8U4KRxFFCjfjTRPUa0_-43" style="edgeStyle=orthogonalEdgeStyle;rounded=0;orthogonalLoop=1;jettySize=auto;html=1;exitX=0.5;exitY=1;exitDx=0;exitDy=0;entryX=0.5;entryY=0;entryDx=0;entryDy=0;dashed=1;dashPattern=1 4;strokeColor=#FF99FF;strokeWidth=3;" parent="1" source="u8U4KRxFFCjfjTRPUa0_-9" target="u8U4KRxFFCjfjTRPUa0_-40" edge="1">
          <mxGeometry relative="1" as="geometry" />
        </mxCell>
        <mxCell id="u8U4KRxFFCjfjTRPUa0_-9" value="&lt;b&gt;PLANS&lt;br&gt;(&lt;/b&gt;ex: RUN PLAN)&amp;nbsp;" style="rounded=1;whiteSpace=wrap;html=1;" parent="1" vertex="1">
          <mxGeometry x="-280" y="80" width="120" height="60" as="geometry" />
        </mxCell>
        <mxCell id="u8U4KRxFFCjfjTRPUa0_-27" style="edgeStyle=orthogonalEdgeStyle;rounded=0;orthogonalLoop=1;jettySize=auto;html=1;exitX=0;exitY=0.5;exitDx=0;exitDy=0;entryX=1;entryY=0.5;entryDx=0;entryDy=0;" parent="1" source="u8U4KRxFFCjfjTRPUa0_-10" target="u8U4KRxFFCjfjTRPUa0_-9" edge="1">
          <mxGeometry relative="1" as="geometry" />
        </mxCell>
        <mxCell id="u8U4KRxFFCjfjTRPUa0_-28" value="1-n" style="edgeLabel;html=1;align=center;verticalAlign=middle;resizable=0;points=[];" parent="u8U4KRxFFCjfjTRPUa0_-27" vertex="1" connectable="0">
          <mxGeometry x="0.025" y="2" relative="1" as="geometry">
            <mxPoint as="offset" />
          </mxGeometry>
        </mxCell>
        <mxCell id="u8U4KRxFFCjfjTRPUa0_-61" style="edgeStyle=orthogonalEdgeStyle;rounded=0;orthogonalLoop=1;jettySize=auto;html=1;exitX=0.5;exitY=1;exitDx=0;exitDy=0;entryX=0.5;entryY=0;entryDx=0;entryDy=0;dashed=1;dashPattern=1 4;strokeColor=#FF99FF;strokeWidth=3;" parent="1" source="u8U4KRxFFCjfjTRPUa0_-10" target="u8U4KRxFFCjfjTRPUa0_-44" edge="1">
          <mxGeometry relative="1" as="geometry" />
        </mxCell>
        <mxCell id="u8U4KRxFFCjfjTRPUa0_-10" value="&lt;b&gt;SEQUENCES&lt;/b&gt;&lt;br&gt;(Ex: CSD Migration)" style="rounded=1;whiteSpace=wrap;html=1;" parent="1" vertex="1">
          <mxGeometry x="-80" y="80" width="120" height="60" as="geometry" />
        </mxCell>
        <mxCell id="u8U4KRxFFCjfjTRPUa0_-29" style="edgeStyle=orthogonalEdgeStyle;rounded=0;orthogonalLoop=1;jettySize=auto;html=1;exitX=0;exitY=0.5;exitDx=0;exitDy=0;entryX=1;entryY=0.5;entryDx=0;entryDy=0;" parent="1" source="u8U4KRxFFCjfjTRPUa0_-11" target="u8U4KRxFFCjfjTRPUa0_-10" edge="1">
          <mxGeometry relative="1" as="geometry" />
        </mxCell>
        <mxCell id="u8U4KRxFFCjfjTRPUa0_-30" value="1-n" style="edgeLabel;html=1;align=center;verticalAlign=middle;resizable=0;points=[];" parent="u8U4KRxFFCjfjTRPUa0_-29" vertex="1" connectable="0">
          <mxGeometry y="-2" relative="1" as="geometry">
            <mxPoint as="offset" />
          </mxGeometry>
        </mxCell>
        <mxCell id="u8U4KRxFFCjfjTRPUa0_-62" style="edgeStyle=orthogonalEdgeStyle;rounded=0;orthogonalLoop=1;jettySize=auto;html=1;exitX=0.25;exitY=1;exitDx=0;exitDy=0;entryX=0.25;entryY=0;entryDx=0;entryDy=0;dashed=1;dashPattern=1 4;strokeColor=#FF99FF;strokeWidth=3;" parent="1" source="u8U4KRxFFCjfjTRPUa0_-11" target="u8U4KRxFFCjfjTRPUa0_-45" edge="1">
          <mxGeometry relative="1" as="geometry" />
        </mxCell>
        <mxCell id="u8U4KRxFFCjfjTRPUa0_-11" value="&lt;b&gt;PHASES&lt;/b&gt;&lt;br&gt;(ex: SECLI STAGING&lt;b&gt;)&lt;/b&gt;" style="rounded=1;whiteSpace=wrap;html=1;" parent="1" vertex="1">
          <mxGeometry x="120" y="80" width="120" height="60" as="geometry" />
        </mxCell>
        <mxCell id="u8U4KRxFFCjfjTRPUa0_-31" style="edgeStyle=orthogonalEdgeStyle;rounded=0;orthogonalLoop=1;jettySize=auto;html=1;exitX=0;exitY=0.5;exitDx=0;exitDy=0;entryX=1;entryY=0.5;entryDx=0;entryDy=0;" parent="1" source="u8U4KRxFFCjfjTRPUa0_-12" target="u8U4KRxFFCjfjTRPUa0_-11" edge="1">
          <mxGeometry relative="1" as="geometry" />
        </mxCell>
        <mxCell id="u8U4KRxFFCjfjTRPUa0_-32" value="1-n" style="edgeLabel;html=1;align=center;verticalAlign=middle;resizable=0;points=[];" parent="u8U4KRxFFCjfjTRPUa0_-31" vertex="1" connectable="0">
          <mxGeometry x="0.25" y="-1" relative="1" as="geometry">
            <mxPoint as="offset" />
          </mxGeometry>
        </mxCell>
        <mxCell id="u8U4KRxFFCjfjTRPUa0_-12" value="&lt;b&gt;STEPS&lt;/b&gt;&lt;br&gt;(ex: TRT-1680)" style="rounded=1;whiteSpace=wrap;html=1;" parent="1" vertex="1">
          <mxGeometry x="320" y="80" width="120" height="60" as="geometry" />
        </mxCell>
        <mxCell id="u8U4KRxFFCjfjTRPUa0_-33" style="edgeStyle=orthogonalEdgeStyle;rounded=0;orthogonalLoop=1;jettySize=auto;html=1;exitX=0;exitY=0.5;exitDx=0;exitDy=0;entryX=1;entryY=0.5;entryDx=0;entryDy=0;" parent="1" source="u8U4KRxFFCjfjTRPUa0_-13" target="u8U4KRxFFCjfjTRPUa0_-12" edge="1">
          <mxGeometry relative="1" as="geometry" />
        </mxCell>
        <mxCell id="u8U4KRxFFCjfjTRPUa0_-34" value="1-n" style="edgeLabel;html=1;align=center;verticalAlign=middle;resizable=0;points=[];" parent="u8U4KRxFFCjfjTRPUa0_-33" vertex="1" connectable="0">
          <mxGeometry x="0.05" y="-3" relative="1" as="geometry">
            <mxPoint as="offset" />
          </mxGeometry>
        </mxCell>
        <mxCell id="u8U4KRxFFCjfjTRPUa0_-37" style="edgeStyle=orthogonalEdgeStyle;rounded=0;orthogonalLoop=1;jettySize=auto;html=1;exitX=0.5;exitY=1;exitDx=0;exitDy=0;entryX=1;entryY=0.5;entryDx=0;entryDy=0;" parent="1" source="u8U4KRxFFCjfjTRPUa0_-13" target="u8U4KRxFFCjfjTRPUa0_-14" edge="1">
          <mxGeometry relative="1" as="geometry" />
        </mxCell>
        <mxCell id="u8U4KRxFFCjfjTRPUa0_-38" value="1-n" style="edgeLabel;html=1;align=center;verticalAlign=middle;resizable=0;points=[];" parent="u8U4KRxFFCjfjTRPUa0_-37" vertex="1" connectable="0">
          <mxGeometry x="0.0522" y="1" relative="1" as="geometry">
            <mxPoint as="offset" />
          </mxGeometry>
        </mxCell>
        <mxCell id="u8U4KRxFFCjfjTRPUa0_-63" style="edgeStyle=orthogonalEdgeStyle;rounded=0;orthogonalLoop=1;jettySize=auto;html=1;exitX=0.75;exitY=1;exitDx=0;exitDy=0;entryX=0.75;entryY=0;entryDx=0;entryDy=0;dashed=1;dashPattern=1 4;strokeColor=#FF99FF;strokeWidth=3;" parent="1" source="u8U4KRxFFCjfjTRPUa0_-13" target="u8U4KRxFFCjfjTRPUa0_-47" edge="1">
          <mxGeometry relative="1" as="geometry" />
        </mxCell>
        <mxCell id="u8U4KRxFFCjfjTRPUa0_-13" value="&lt;b&gt;INSTRUCTIONS&lt;/b&gt;" style="rounded=1;whiteSpace=wrap;html=1;" parent="1" vertex="1">
          <mxGeometry x="520" y="80" width="120" height="60" as="geometry" />
        </mxCell>
        <mxCell id="u8U4KRxFFCjfjTRPUa0_-35" style="edgeStyle=orthogonalEdgeStyle;rounded=0;orthogonalLoop=1;jettySize=auto;html=1;exitX=0;exitY=0.5;exitDx=0;exitDy=0;entryX=0.5;entryY=1;entryDx=0;entryDy=0;" parent="1" source="u8U4KRxFFCjfjTRPUa0_-14" target="u8U4KRxFFCjfjTRPUa0_-11" edge="1">
          <mxGeometry relative="1" as="geometry" />
        </mxCell>
        <mxCell id="u8U4KRxFFCjfjTRPUa0_-36" value="1-n" style="edgeLabel;html=1;align=center;verticalAlign=middle;resizable=0;points=[];" parent="u8U4KRxFFCjfjTRPUa0_-35" vertex="1" connectable="0">
          <mxGeometry x="-0.0522" y="1" relative="1" as="geometry">
            <mxPoint as="offset" />
          </mxGeometry>
        </mxCell>
        <mxCell id="u8U4KRxFFCjfjTRPUa0_-14" value="&lt;b&gt;CONTROLS&lt;/b&gt;&lt;div&gt;(ex: C1019)&lt;/div&gt;" style="rounded=1;whiteSpace=wrap;html=1;" parent="1" vertex="1">
          <mxGeometry x="320" y="200" width="120" height="60" as="geometry" />
        </mxCell>
        <mxCell id="u8U4KRxFFCjfjTRPUa0_-15" value="&lt;b&gt;ENV_ROLES&lt;/b&gt;&lt;br&gt;(ex: TEST)" style="rounded=1;whiteSpace=wrap;html=1;" parent="1" vertex="1">
          <mxGeometry x="-840" y="540" width="120" height="60" as="geometry" />
        </mxCell>
        <mxCell id="u8U4KRxFFCjfjTRPUa0_-16" value="&lt;b&gt;STATUSES&lt;/b&gt;" style="rounded=1;whiteSpace=wrap;html=1;" parent="1" vertex="1">
          <mxGeometry x="-280" y="700" width="120" height="60" as="geometry" />
        </mxCell>
        <mxCell id="u8U4KRxFFCjfjTRPUa0_-39" value="INSTANCE LAYER" style="text;html=1;align=left;verticalAlign=middle;whiteSpace=wrap;rounded=0;fontStyle=1;fontSize=19;" parent="1" vertex="1">
          <mxGeometry x="-730" y="380" width="200" height="30" as="geometry" />
        </mxCell>
        <mxCell id="u8U4KRxFFCjfjTRPUa0_-54" style="edgeStyle=orthogonalEdgeStyle;rounded=0;orthogonalLoop=1;jettySize=auto;html=1;exitX=0;exitY=0.5;exitDx=0;exitDy=0;entryX=1;entryY=0.5;entryDx=0;entryDy=0;" parent="1" source="u8U4KRxFFCjfjTRPUa0_-40" target="u8U4KRxFFCjfjTRPUa0_-41" edge="1">
          <mxGeometry relative="1" as="geometry" />
        </mxCell>
        <mxCell id="u8U4KRxFFCjfjTRPUa0_-40" value="&lt;b&gt;PLANS_I&lt;/b&gt;" style="rounded=1;whiteSpace=wrap;html=1;" parent="1" vertex="1">
          <mxGeometry x="-280" y="360" width="120" height="60" as="geometry" />
        </mxCell>
        <mxCell id="u8U4KRxFFCjfjTRPUa0_-52" style="edgeStyle=orthogonalEdgeStyle;rounded=0;orthogonalLoop=1;jettySize=auto;html=1;exitX=0.5;exitY=1;exitDx=0;exitDy=0;entryX=0.5;entryY=0;entryDx=0;entryDy=0;" parent="1" source="u8U4KRxFFCjfjTRPUa0_-41" target="u8U4KRxFFCjfjTRPUa0_-49" edge="1">
          <mxGeometry relative="1" as="geometry" />
        </mxCell>
        <mxCell id="u8U4KRxFFCjfjTRPUa0_-53" value="n-1" style="edgeLabel;html=1;align=center;verticalAlign=middle;resizable=0;points=[];" parent="u8U4KRxFFCjfjTRPUa0_-52" vertex="1" connectable="0">
          <mxGeometry x="-0.0333" y="-2" relative="1" as="geometry">
            <mxPoint as="offset" />
          </mxGeometry>
        </mxCell>
        <mxCell id="u8U4KRxFFCjfjTRPUa0_-64" style="edgeStyle=orthogonalEdgeStyle;rounded=0;orthogonalLoop=1;jettySize=auto;html=1;exitX=0.5;exitY=0;exitDx=0;exitDy=0;entryX=0.5;entryY=1;entryDx=0;entryDy=0;" parent="1" source="u8U4KRxFFCjfjTRPUa0_-41" target="u8U4KRxFFCjfjTRPUa0_-1" edge="1">
          <mxGeometry relative="1" as="geometry" />
        </mxCell>
        <mxCell id="u8U4KRxFFCjfjTRPUa0_-65" value="n-1" style="edgeLabel;html=1;align=center;verticalAlign=middle;resizable=0;points=[];" parent="u8U4KRxFFCjfjTRPUa0_-64" vertex="1" connectable="0">
          <mxGeometry x="-0.0909" y="2" relative="1" as="geometry">
            <mxPoint as="offset" />
          </mxGeometry>
        </mxCell>
        <mxCell id="u8U4KRxFFCjfjTRPUa0_-41" value="&lt;b&gt;ITERATIONS&lt;/b&gt;&lt;br&gt;(ex: DR2)" style="rounded=1;whiteSpace=wrap;html=1;" parent="1" vertex="1">
          <mxGeometry x="-480" y="360" width="120" height="60" as="geometry" />
        </mxCell>
        <mxCell id="u8U4KRxFFCjfjTRPUa0_-55" style="edgeStyle=orthogonalEdgeStyle;rounded=0;orthogonalLoop=1;jettySize=auto;html=1;exitX=0;exitY=0.5;exitDx=0;exitDy=0;entryX=1;entryY=0.5;entryDx=0;entryDy=0;" parent="1" source="u8U4KRxFFCjfjTRPUa0_-44" target="u8U4KRxFFCjfjTRPUa0_-40" edge="1">
          <mxGeometry relative="1" as="geometry" />
        </mxCell>
        <mxCell id="u8U4KRxFFCjfjTRPUa0_-44" value="&lt;b&gt;SEQUENCES_I&lt;/b&gt;" style="rounded=1;whiteSpace=wrap;html=1;" parent="1" vertex="1">
          <mxGeometry x="-80" y="360" width="120" height="60" as="geometry" />
        </mxCell>
        <mxCell id="u8U4KRxFFCjfjTRPUa0_-56" style="edgeStyle=orthogonalEdgeStyle;rounded=0;orthogonalLoop=1;jettySize=auto;html=1;exitX=0;exitY=0.5;exitDx=0;exitDy=0;entryX=1;entryY=0.5;entryDx=0;entryDy=0;" parent="1" source="u8U4KRxFFCjfjTRPUa0_-45" target="u8U4KRxFFCjfjTRPUa0_-44" edge="1">
          <mxGeometry relative="1" as="geometry" />
        </mxCell>
        <mxCell id="u8U4KRxFFCjfjTRPUa0_-45" value="&lt;b&gt;PHASES_I&lt;/b&gt;" style="rounded=1;whiteSpace=wrap;html=1;" parent="1" vertex="1">
          <mxGeometry x="120" y="360" width="120" height="60" as="geometry" />
        </mxCell>
        <mxCell id="u8U4KRxFFCjfjTRPUa0_-57" style="edgeStyle=orthogonalEdgeStyle;rounded=0;orthogonalLoop=1;jettySize=auto;html=1;exitX=0;exitY=0.5;exitDx=0;exitDy=0;" parent="1" source="u8U4KRxFFCjfjTRPUa0_-46" target="u8U4KRxFFCjfjTRPUa0_-45" edge="1">
          <mxGeometry relative="1" as="geometry" />
        </mxCell>
        <mxCell id="u8U4KRxFFCjfjTRPUa0_-46" value="&lt;b&gt;STEPS_I&lt;/b&gt;" style="rounded=1;whiteSpace=wrap;html=1;" parent="1" vertex="1">
          <mxGeometry x="320" y="360" width="120" height="60" as="geometry" />
        </mxCell>
        <mxCell id="u8U4KRxFFCjfjTRPUa0_-58" style="edgeStyle=orthogonalEdgeStyle;rounded=0;orthogonalLoop=1;jettySize=auto;html=1;exitX=0;exitY=0.5;exitDx=0;exitDy=0;" parent="1" source="u8U4KRxFFCjfjTRPUa0_-47" target="u8U4KRxFFCjfjTRPUa0_-46" edge="1">
          <mxGeometry relative="1" as="geometry" />
        </mxCell>
        <mxCell id="u8U4KRxFFCjfjTRPUa0_-59" style="edgeStyle=orthogonalEdgeStyle;rounded=0;orthogonalLoop=1;jettySize=auto;html=1;exitX=0.5;exitY=1;exitDx=0;exitDy=0;entryX=1;entryY=0.5;entryDx=0;entryDy=0;" parent="1" source="u8U4KRxFFCjfjTRPUa0_-47" target="u8U4KRxFFCjfjTRPUa0_-48" edge="1">
          <mxGeometry relative="1" as="geometry" />
        </mxCell>
        <mxCell id="u8U4KRxFFCjfjTRPUa0_-47" value="&lt;b&gt;INSTRUCTIONS_I&lt;/b&gt;" style="rounded=1;whiteSpace=wrap;html=1;" parent="1" vertex="1">
          <mxGeometry x="520" y="360" width="120" height="60" as="geometry" />
        </mxCell>
        <mxCell id="u8U4KRxFFCjfjTRPUa0_-60" style="edgeStyle=orthogonalEdgeStyle;rounded=0;orthogonalLoop=1;jettySize=auto;html=1;exitX=0;exitY=0.5;exitDx=0;exitDy=0;entryX=0.5;entryY=1;entryDx=0;entryDy=0;" parent="1" source="u8U4KRxFFCjfjTRPUa0_-48" target="u8U4KRxFFCjfjTRPUa0_-45" edge="1">
          <mxGeometry relative="1" as="geometry" />
        </mxCell>
        <mxCell id="u8U4KRxFFCjfjTRPUa0_-48" value="&lt;b&gt;CONTROLS_I&lt;/b&gt;" style="rounded=1;whiteSpace=wrap;html=1;" parent="1" vertex="1">
          <mxGeometry x="320" y="480" width="120" height="60" as="geometry" />
        </mxCell>
        <mxCell id="u8U4KRxFFCjfjTRPUa0_-49" value="&lt;b&gt;ITERATION_TYPES&lt;/b&gt;&lt;br&gt;(ex: DR)" style="rounded=1;whiteSpace=wrap;html=1;" parent="1" vertex="1">
          <mxGeometry x="-480" y="480" width="120" height="60" as="geometry" />
        </mxCell>
        <mxCell id="u8U4KRxFFCjfjTRPUa0_-66" value="AUDIT LAYER" style="text;html=1;align=left;verticalAlign=middle;whiteSpace=wrap;rounded=0;fontStyle=1;fontSize=19;" parent="1" vertex="1">
          <mxGeometry x="-730" y="710" width="200" height="30" as="geometry" />
        </mxCell>
        <mxCell id="u8U4KRxFFCjfjTRPUa0_-67" value="&lt;b&gt;AUDIT_LOG&lt;/b&gt;" style="rounded=1;whiteSpace=wrap;html=1;" parent="1" vertex="1">
          <mxGeometry x="-480" y="700" width="120" height="60" as="geometry" />
        </mxCell>
        <mxCell id="u8U4KRxFFCjfjTRPUa0_-68" value="&lt;b&gt;ROLES&lt;/b&gt;&lt;br&gt;(ex: PILOT)" style="rounded=1;whiteSpace=wrap;html=1;" parent="1" vertex="1">
          <mxGeometry x="-480" y="-120" width="120" height="60" as="geometry" />
        </mxCell>
        <mxCell id="u8U4KRxFFCjfjTRPUa0_-75" style="edgeStyle=orthogonalEdgeStyle;rounded=0;orthogonalLoop=1;jettySize=auto;html=1;exitX=1;exitY=0.5;exitDx=0;exitDy=0;entryX=0;entryY=0.5;entryDx=0;entryDy=0;" parent="1" source="u8U4KRxFFCjfjTRPUa0_-71" target="u8U4KRxFFCjfjTRPUa0_-49" edge="1">
          <mxGeometry relative="1" as="geometry" />
        </mxCell>
        <mxCell id="u8U4KRxFFCjfjTRPUa0_-76" style="edgeStyle=orthogonalEdgeStyle;rounded=0;orthogonalLoop=1;jettySize=auto;html=1;exitX=0;exitY=0.5;exitDx=0;exitDy=0;entryX=0.5;entryY=0;entryDx=0;entryDy=0;" parent="1" source="u8U4KRxFFCjfjTRPUa0_-71" target="u8U4KRxFFCjfjTRPUa0_-15" edge="1">
          <mxGeometry relative="1" as="geometry" />
        </mxCell>
        <mxCell id="u8U4KRxFFCjfjTRPUa0_-77" style="edgeStyle=orthogonalEdgeStyle;rounded=0;orthogonalLoop=1;jettySize=auto;html=1;exitX=0;exitY=0.5;exitDx=0;exitDy=0;entryX=0.5;entryY=1;entryDx=0;entryDy=0;" parent="1" source="u8U4KRxFFCjfjTRPUa0_-71" target="u8U4KRxFFCjfjTRPUa0_-6" edge="1">
          <mxGeometry relative="1" as="geometry">
            <Array as="points">
              <mxPoint x="-780" y="510" />
              <mxPoint x="-780" y="10" />
              <mxPoint x="-20" y="10" />
            </Array>
          </mxGeometry>
        </mxCell>
        <mxCell id="u8U4KRxFFCjfjTRPUa0_-71" value="&lt;b&gt;ENV_x_ITERATIONS&lt;/b&gt;" style="rounded=1;whiteSpace=wrap;html=1;" parent="1" vertex="1">
          <mxGeometry x="-680" y="480" width="120" height="60" as="geometry" />
        </mxCell>
      </root>
    </mxGraphModel>
  </diagram>
  <diagram id="ReGTOkJes-MLVKs_ZIqJ" name="Functional architecture">
    <mxGraphModel dx="5837" dy="3097" grid="0" gridSize="10" guides="1" tooltips="1" connect="1" arrows="1" fold="1" page="0" pageScale="1" pageWidth="827" pageHeight="1169" math="0" shadow="0">
      <root>
        <mxCell id="0" />
        <mxCell id="1" parent="0" />
        <mxCell id="atugUuBUGDOx-Fq1OL0i-19" style="edgeStyle=orthogonalEdgeStyle;rounded=0;orthogonalLoop=1;jettySize=auto;html=1;exitX=0.5;exitY=1;exitDx=0;exitDy=0;strokeWidth=3;" parent="1" source="atugUuBUGDOx-Fq1OL0i-3" target="atugUuBUGDOx-Fq1OL0i-4" edge="1">
          <mxGeometry relative="1" as="geometry" />
        </mxCell>
        <mxCell id="atugUuBUGDOx-Fq1OL0i-43" style="edgeStyle=orthogonalEdgeStyle;rounded=0;orthogonalLoop=1;jettySize=auto;html=1;exitX=0.5;exitY=1;exitDx=0;exitDy=0;strokeWidth=3;" parent="1" source="atugUuBUGDOx-Fq1OL0i-3" target="atugUuBUGDOx-Fq1OL0i-22" edge="1">
          <mxGeometry relative="1" as="geometry" />
        </mxCell>
        <mxCell id="atugUuBUGDOx-Fq1OL0i-50" style="edgeStyle=orthogonalEdgeStyle;rounded=0;orthogonalLoop=1;jettySize=auto;html=1;exitX=0.5;exitY=1;exitDx=0;exitDy=0;strokeWidth=3;" parent="1" source="atugUuBUGDOx-Fq1OL0i-3" target="atugUuBUGDOx-Fq1OL0i-49" edge="1">
          <mxGeometry relative="1" as="geometry" />
        </mxCell>
        <mxCell id="atugUuBUGDOx-Fq1OL0i-204" style="edgeStyle=orthogonalEdgeStyle;rounded=0;orthogonalLoop=1;jettySize=auto;html=1;exitX=0.5;exitY=1;exitDx=0;exitDy=0;" parent="1" source="atugUuBUGDOx-Fq1OL0i-3" target="atugUuBUGDOx-Fq1OL0i-201" edge="1">
          <mxGeometry relative="1" as="geometry" />
        </mxCell>
        <mxCell id="atugUuBUGDOx-Fq1OL0i-205" style="edgeStyle=orthogonalEdgeStyle;rounded=0;orthogonalLoop=1;jettySize=auto;html=1;exitX=0.5;exitY=1;exitDx=0;exitDy=0;entryX=0.5;entryY=0;entryDx=0;entryDy=0;" parent="1" source="atugUuBUGDOx-Fq1OL0i-3" target="atugUuBUGDOx-Fq1OL0i-202" edge="1">
          <mxGeometry relative="1" as="geometry" />
        </mxCell>
        <mxCell id="atugUuBUGDOx-Fq1OL0i-206" style="edgeStyle=orthogonalEdgeStyle;rounded=0;orthogonalLoop=1;jettySize=auto;html=1;exitX=0.5;exitY=1;exitDx=0;exitDy=0;entryX=0.5;entryY=0;entryDx=0;entryDy=0;" parent="1" source="atugUuBUGDOx-Fq1OL0i-3" target="atugUuBUGDOx-Fq1OL0i-203" edge="1">
          <mxGeometry relative="1" as="geometry" />
        </mxCell>
        <mxCell id="atugUuBUGDOx-Fq1OL0i-3" value="&lt;font style=&quot;font-size: 24px;&quot;&gt;CONFLUENCE HOME&lt;/font&gt;&lt;div&gt;&lt;span style=&quot;font-size: 24px;&quot;&gt;&lt;br&gt;&lt;/span&gt;UMIG WELCOME PAGE&lt;br&gt;&lt;br&gt;MENU&lt;/div&gt;" style="rounded=0;whiteSpace=wrap;html=1;fillColor=#f5f5f5;gradientColor=#b3b3b3;strokeColor=#666666;fontColor=#000000;fontSize=18;verticalAlign=middle;fontStyle=1" parent="1" vertex="1">
          <mxGeometry x="-220" y="-320" width="440" height="240" as="geometry" />
        </mxCell>
        <mxCell id="atugUuBUGDOx-Fq1OL0i-4" value="UMIG ADMIN GUI" style="rounded=0;whiteSpace=wrap;html=1;fillColor=#f5f5f5;gradientColor=#b3b3b3;strokeColor=#666666;fontColor=#000000;fontSize=18;verticalAlign=top;fontStyle=1" parent="1" vertex="1">
          <mxGeometry x="-1000" y="40" width="640" height="400" as="geometry" />
        </mxCell>
        <mxCell id="atugUuBUGDOx-Fq1OL0i-15" style="edgeStyle=orthogonalEdgeStyle;rounded=0;orthogonalLoop=1;jettySize=auto;html=1;exitX=0.5;exitY=1;exitDx=0;exitDy=0;entryX=0.5;entryY=0;entryDx=0;entryDy=0;strokeColor=#000000;strokeWidth=2;" parent="1" source="atugUuBUGDOx-Fq1OL0i-10" target="atugUuBUGDOx-Fq1OL0i-11" edge="1">
          <mxGeometry relative="1" as="geometry" />
        </mxCell>
        <mxCell id="atugUuBUGDOx-Fq1OL0i-16" style="edgeStyle=orthogonalEdgeStyle;rounded=0;orthogonalLoop=1;jettySize=auto;html=1;exitX=0.5;exitY=1;exitDx=0;exitDy=0;entryX=0.5;entryY=0;entryDx=0;entryDy=0;strokeColor=#000000;strokeWidth=2;" parent="1" source="atugUuBUGDOx-Fq1OL0i-10" target="atugUuBUGDOx-Fq1OL0i-12" edge="1">
          <mxGeometry relative="1" as="geometry" />
        </mxCell>
        <mxCell id="atugUuBUGDOx-Fq1OL0i-17" style="edgeStyle=orthogonalEdgeStyle;rounded=0;orthogonalLoop=1;jettySize=auto;html=1;exitX=0.5;exitY=1;exitDx=0;exitDy=0;strokeColor=#000000;strokeWidth=2;" parent="1" source="atugUuBUGDOx-Fq1OL0i-10" target="atugUuBUGDOx-Fq1OL0i-13" edge="1">
          <mxGeometry relative="1" as="geometry" />
        </mxCell>
        <mxCell id="atugUuBUGDOx-Fq1OL0i-18" style="edgeStyle=orthogonalEdgeStyle;rounded=0;orthogonalLoop=1;jettySize=auto;html=1;exitX=0.5;exitY=1;exitDx=0;exitDy=0;strokeColor=#000000;strokeWidth=2;" parent="1" source="atugUuBUGDOx-Fq1OL0i-10" target="atugUuBUGDOx-Fq1OL0i-14" edge="1">
          <mxGeometry relative="1" as="geometry" />
        </mxCell>
        <mxCell id="atugUuBUGDOx-Fq1OL0i-10" value="LOGIN" style="rounded=0;whiteSpace=wrap;html=1;" parent="1" vertex="1">
          <mxGeometry x="-740" y="140" width="120" height="60" as="geometry" />
        </mxCell>
        <mxCell id="atugUuBUGDOx-Fq1OL0i-11" value="ENTITIES MANAGEMENT" style="rounded=0;whiteSpace=wrap;html=1;" parent="1" vertex="1">
          <mxGeometry x="-970" y="280" width="120" height="60" as="geometry" />
        </mxCell>
        <mxCell id="atugUuBUGDOx-Fq1OL0i-12" value="PLANS MANAGEMENT" style="rounded=0;whiteSpace=wrap;html=1;fillColor=#f5f5f5;fontColor=#333333;strokeColor=#666666;" parent="1" vertex="1">
          <mxGeometry x="-820" y="280" width="120" height="60" as="geometry" />
        </mxCell>
        <mxCell id="atugUuBUGDOx-Fq1OL0i-13" value="AUDIT" style="rounded=0;whiteSpace=wrap;html=1;fillColor=#f5f5f5;fontColor=#333333;strokeColor=#666666;" parent="1" vertex="1">
          <mxGeometry x="-670" y="280" width="120" height="60" as="geometry" />
        </mxCell>
        <mxCell id="atugUuBUGDOx-Fq1OL0i-14" value="CONFIG" style="rounded=0;whiteSpace=wrap;html=1;fillColor=#f5f5f5;strokeColor=#666666;fontColor=#333333;" parent="1" vertex="1">
          <mxGeometry x="-520" y="280" width="120" height="60" as="geometry" />
        </mxCell>
        <mxCell id="atugUuBUGDOx-Fq1OL0i-21" style="edgeStyle=orthogonalEdgeStyle;rounded=0;orthogonalLoop=1;jettySize=auto;html=1;exitX=0;exitY=0.5;exitDx=0;exitDy=0;strokeColor=#000000;strokeWidth=2;" parent="1" source="atugUuBUGDOx-Fq1OL0i-20" target="atugUuBUGDOx-Fq1OL0i-10" edge="1">
          <mxGeometry relative="1" as="geometry" />
        </mxCell>
        <mxCell id="atugUuBUGDOx-Fq1OL0i-20" value="SUPER ADMIN&lt;div&gt;ADMIN&lt;/div&gt;&lt;div&gt;PILOT&lt;/div&gt;" style="shape=process;whiteSpace=wrap;html=1;backgroundOutline=1;" parent="1" vertex="1">
          <mxGeometry x="-570" y="140" width="120" height="60" as="geometry" />
        </mxCell>
        <mxCell id="atugUuBUGDOx-Fq1OL0i-22" value="ITERATION VIEW" style="rounded=0;whiteSpace=wrap;html=1;fillColor=#f5f5f5;gradientColor=#b3b3b3;strokeColor=#000000;fontColor=#000000;fontSize=18;verticalAlign=top;fontStyle=1;strokeWidth=2;" parent="1" vertex="1">
          <mxGeometry x="-320" y="40" width="640" height="400" as="geometry" />
        </mxCell>
        <mxCell id="atugUuBUGDOx-Fq1OL0i-35" style="edgeStyle=orthogonalEdgeStyle;rounded=0;orthogonalLoop=1;jettySize=auto;html=1;exitX=1;exitY=0.5;exitDx=0;exitDy=0;entryX=0;entryY=0.5;entryDx=0;entryDy=0;strokeColor=#000000;" parent="1" source="atugUuBUGDOx-Fq1OL0i-23" target="atugUuBUGDOx-Fq1OL0i-24" edge="1">
          <mxGeometry relative="1" as="geometry" />
        </mxCell>
        <mxCell id="atugUuBUGDOx-Fq1OL0i-23" value="Migration selector" style="rounded=0;whiteSpace=wrap;html=1;" parent="1" vertex="1">
          <mxGeometry x="-150" y="90" width="120" height="30" as="geometry" />
        </mxCell>
        <mxCell id="atugUuBUGDOx-Fq1OL0i-36" style="edgeStyle=orthogonalEdgeStyle;rounded=0;orthogonalLoop=1;jettySize=auto;html=1;exitX=1;exitY=0.5;exitDx=0;exitDy=0;entryX=0;entryY=0.5;entryDx=0;entryDy=0;strokeColor=#000000;" parent="1" source="atugUuBUGDOx-Fq1OL0i-24" target="atugUuBUGDOx-Fq1OL0i-25" edge="1">
          <mxGeometry relative="1" as="geometry" />
        </mxCell>
        <mxCell id="atugUuBUGDOx-Fq1OL0i-24" value="Iteration selector" style="rounded=0;whiteSpace=wrap;html=1;" parent="1" vertex="1">
          <mxGeometry x="10" y="90" width="120" height="30" as="geometry" />
        </mxCell>
        <mxCell id="atugUuBUGDOx-Fq1OL0i-25" value="Plan selector" style="rounded=0;whiteSpace=wrap;html=1;" parent="1" vertex="1">
          <mxGeometry x="170" y="90" width="120" height="30" as="geometry" />
        </mxCell>
        <mxCell id="atugUuBUGDOx-Fq1OL0i-34" style="edgeStyle=orthogonalEdgeStyle;rounded=0;orthogonalLoop=1;jettySize=auto;html=1;exitX=0.5;exitY=1;exitDx=0;exitDy=0;strokeWidth=2;strokeColor=#000000;" parent="1" source="atugUuBUGDOx-Fq1OL0i-26" target="atugUuBUGDOx-Fq1OL0i-27" edge="1">
          <mxGeometry relative="1" as="geometry" />
        </mxCell>
        <mxCell id="atugUuBUGDOx-Fq1OL0i-26" value="Selectors" style="text;html=1;align=center;verticalAlign=middle;whiteSpace=wrap;rounded=0;fontColor=#000000;fontStyle=1;fontSize=18;" parent="1" vertex="1">
          <mxGeometry x="-260" y="90" width="60" height="30" as="geometry" />
        </mxCell>
        <mxCell id="atugUuBUGDOx-Fq1OL0i-27" value="Filters" style="text;html=1;align=center;verticalAlign=middle;whiteSpace=wrap;rounded=0;fontColor=#000000;fontStyle=1;fontSize=18;" parent="1" vertex="1">
          <mxGeometry x="-260" y="140" width="60" height="30" as="geometry" />
        </mxCell>
        <mxCell id="atugUuBUGDOx-Fq1OL0i-37" style="edgeStyle=orthogonalEdgeStyle;rounded=0;orthogonalLoop=1;jettySize=auto;html=1;exitX=0.5;exitY=1;exitDx=0;exitDy=0;strokeWidth=2;strokeColor=#000000;" parent="1" source="atugUuBUGDOx-Fq1OL0i-28" target="atugUuBUGDOx-Fq1OL0i-32" edge="1">
          <mxGeometry relative="1" as="geometry">
            <Array as="points">
              <mxPoint x="-105" y="190" />
              <mxPoint x="-150" y="190" />
            </Array>
          </mxGeometry>
        </mxCell>
        <mxCell id="atugUuBUGDOx-Fq1OL0i-28" value="Sequences" style="rounded=0;whiteSpace=wrap;html=1;" parent="1" vertex="1">
          <mxGeometry x="-150" y="140" width="90" height="30" as="geometry" />
        </mxCell>
        <mxCell id="atugUuBUGDOx-Fq1OL0i-39" style="edgeStyle=orthogonalEdgeStyle;rounded=0;orthogonalLoop=1;jettySize=auto;html=1;exitX=0.5;exitY=1;exitDx=0;exitDy=0;entryX=0.5;entryY=0;entryDx=0;entryDy=0;strokeWidth=2;strokeColor=#000000;" parent="1" source="atugUuBUGDOx-Fq1OL0i-29" target="atugUuBUGDOx-Fq1OL0i-32" edge="1">
          <mxGeometry relative="1" as="geometry">
            <Array as="points">
              <mxPoint x="5" y="190" />
              <mxPoint x="-150" y="190" />
            </Array>
          </mxGeometry>
        </mxCell>
        <mxCell id="atugUuBUGDOx-Fq1OL0i-29" value="Phases" style="rounded=0;whiteSpace=wrap;html=1;" parent="1" vertex="1">
          <mxGeometry x="-40" y="140" width="90" height="30" as="geometry" />
        </mxCell>
        <mxCell id="atugUuBUGDOx-Fq1OL0i-40" style="edgeStyle=orthogonalEdgeStyle;rounded=0;orthogonalLoop=1;jettySize=auto;html=1;exitX=0.5;exitY=1;exitDx=0;exitDy=0;entryX=0.5;entryY=0;entryDx=0;entryDy=0;strokeWidth=2;strokeColor=#000000;" parent="1" source="atugUuBUGDOx-Fq1OL0i-30" target="atugUuBUGDOx-Fq1OL0i-32" edge="1">
          <mxGeometry relative="1" as="geometry">
            <Array as="points">
              <mxPoint x="115" y="190" />
              <mxPoint x="-150" y="190" />
            </Array>
          </mxGeometry>
        </mxCell>
        <mxCell id="atugUuBUGDOx-Fq1OL0i-30" value="Teams" style="rounded=0;whiteSpace=wrap;html=1;" parent="1" vertex="1">
          <mxGeometry x="70" y="140" width="90" height="30" as="geometry" />
        </mxCell>
        <mxCell id="atugUuBUGDOx-Fq1OL0i-41" style="edgeStyle=orthogonalEdgeStyle;rounded=0;orthogonalLoop=1;jettySize=auto;html=1;exitX=0.5;exitY=1;exitDx=0;exitDy=0;entryX=0.5;entryY=0;entryDx=0;entryDy=0;strokeWidth=2;strokeColor=#000000;" parent="1" source="atugUuBUGDOx-Fq1OL0i-31" target="atugUuBUGDOx-Fq1OL0i-32" edge="1">
          <mxGeometry relative="1" as="geometry">
            <Array as="points">
              <mxPoint x="215" y="190" />
              <mxPoint x="-150" y="190" />
            </Array>
          </mxGeometry>
        </mxCell>
        <mxCell id="atugUuBUGDOx-Fq1OL0i-31" value="Labels" style="rounded=0;whiteSpace=wrap;html=1;" parent="1" vertex="1">
          <mxGeometry x="170" y="140" width="90" height="30" as="geometry" />
        </mxCell>
        <mxCell id="atugUuBUGDOx-Fq1OL0i-42" style="edgeStyle=orthogonalEdgeStyle;rounded=0;orthogonalLoop=1;jettySize=auto;html=1;exitX=1;exitY=0.5;exitDx=0;exitDy=0;entryX=0;entryY=0.5;entryDx=0;entryDy=0;strokeWidth=3;strokeColor=#000000;" parent="1" source="atugUuBUGDOx-Fq1OL0i-32" target="atugUuBUGDOx-Fq1OL0i-33" edge="1">
          <mxGeometry relative="1" as="geometry" />
        </mxCell>
        <mxCell id="atugUuBUGDOx-Fq1OL0i-32" value="RUNSHEET VIEW" style="rounded=0;whiteSpace=wrap;html=1;verticalAlign=top;" parent="1" vertex="1">
          <mxGeometry x="-270" y="215" width="240" height="210" as="geometry" />
        </mxCell>
        <mxCell id="atugUuBUGDOx-Fq1OL0i-33" value="STEP LOOKUP VIEW" style="rounded=0;whiteSpace=wrap;html=1;verticalAlign=top;" parent="1" vertex="1">
          <mxGeometry x="10" y="215" width="240" height="210" as="geometry" />
        </mxCell>
        <mxCell id="atugUuBUGDOx-Fq1OL0i-44" value="STEP 1" style="rounded=0;whiteSpace=wrap;html=1;" parent="1" vertex="1">
          <mxGeometry x="-250" y="250" width="200" height="30" as="geometry" />
        </mxCell>
        <mxCell id="atugUuBUGDOx-Fq1OL0i-45" value="STEP 2" style="rounded=0;whiteSpace=wrap;html=1;" parent="1" vertex="1">
          <mxGeometry x="-250" y="290" width="200" height="30" as="geometry" />
        </mxCell>
        <mxCell id="atugUuBUGDOx-Fq1OL0i-46" value="..." style="rounded=0;whiteSpace=wrap;html=1;" parent="1" vertex="1">
          <mxGeometry x="-250" y="330" width="200" height="30" as="geometry" />
        </mxCell>
        <mxCell id="atugUuBUGDOx-Fq1OL0i-47" value="STEP N" style="rounded=0;whiteSpace=wrap;html=1;" parent="1" vertex="1">
          <mxGeometry x="-250" y="370" width="200" height="30" as="geometry" />
        </mxCell>
        <mxCell id="atugUuBUGDOx-Fq1OL0i-49" value="STEP VIEW" style="rounded=0;whiteSpace=wrap;html=1;fillColor=#f5f5f5;gradientColor=#b3b3b3;strokeColor=#000000;fontColor=#000000;fontSize=18;verticalAlign=top;fontStyle=1;strokeWidth=2;" parent="1" vertex="1">
          <mxGeometry x="360" y="40" width="1040" height="1510" as="geometry" />
        </mxCell>
        <mxCell id="atugUuBUGDOx-Fq1OL0i-200" value="" style="group" parent="1" vertex="1" connectable="0">
          <mxGeometry x="390" y="100" width="960" height="1360" as="geometry" />
        </mxCell>
        <mxCell id="atugUuBUGDOx-Fq1OL0i-126" value="{stt_code}-{stm_number}" style="rounded=1;whiteSpace=wrap;html=1;" parent="atugUuBUGDOx-Fq1OL0i-200" vertex="1">
          <mxGeometry y="80" width="160" height="40" as="geometry" />
        </mxCell>
        <mxCell id="atugUuBUGDOx-Fq1OL0i-127" value="{sti_name}" style="rounded=1;whiteSpace=wrap;html=1;" parent="atugUuBUGDOx-Fq1OL0i-200" vertex="1">
          <mxGeometry x="160" y="80" width="680" height="40" as="geometry" />
        </mxCell>
        <mxCell id="atugUuBUGDOx-Fq1OL0i-128" value="&lt;b&gt;associations stm_id / itt_code&lt;/b&gt;&lt;div&gt;from table&amp;nbsp;steps_master_stm_x_iteration_types_itt&lt;/div&gt;" style="rounded=1;whiteSpace=wrap;html=1;dashed=1;strokeColor=#999999;fontColor=#999999;" parent="atugUuBUGDOx-Fq1OL0i-200" vertex="1">
          <mxGeometry x="150" y="230" width="360" height="40" as="geometry" />
        </mxCell>
        <mxCell id="atugUuBUGDOx-Fq1OL0i-129" value="SCOPE:" style="rounded=0;whiteSpace=wrap;html=1;fillColor=#dae8fc;strokeColor=#6c8ebf;fontColor=#000066;fontStyle=1" parent="atugUuBUGDOx-Fq1OL0i-200" vertex="1">
          <mxGeometry y="280" width="160" height="40" as="geometry" />
        </mxCell>
        <mxCell id="atugUuBUGDOx-Fq1OL0i-130" value="RUN" style="rounded=0;whiteSpace=wrap;html=1;fillColor=#dae8fc;strokeColor=#6c8ebf;fontColor=#000066;fontStyle=1" parent="atugUuBUGDOx-Fq1OL0i-200" vertex="1">
          <mxGeometry x="200" y="280" width="80" height="40" as="geometry" />
        </mxCell>
        <mxCell id="atugUuBUGDOx-Fq1OL0i-131" value="DR" style="rounded=0;whiteSpace=wrap;html=1;fillColor=#dae8fc;strokeColor=#6c8ebf;fontColor=#000066;fontStyle=1" parent="atugUuBUGDOx-Fq1OL0i-200" vertex="1">
          <mxGeometry x="280" y="280" width="80" height="40" as="geometry" />
        </mxCell>
        <mxCell id="atugUuBUGDOx-Fq1OL0i-132" value="CUTOVER" style="rounded=0;whiteSpace=wrap;html=1;fillColor=#dae8fc;strokeColor=#6c8ebf;fontColor=#000066;fontStyle=1" parent="atugUuBUGDOx-Fq1OL0i-200" vertex="1">
          <mxGeometry x="360" y="280" width="80" height="40" as="geometry" />
        </mxCell>
        <mxCell id="atugUuBUGDOx-Fq1OL0i-133" value="{Y or N}" style="rounded=0;whiteSpace=wrap;html=1;" parent="atugUuBUGDOx-Fq1OL0i-200" vertex="1">
          <mxGeometry x="200" y="320" width="80" height="40" as="geometry" />
        </mxCell>
        <mxCell id="atugUuBUGDOx-Fq1OL0i-134" value="{Y or N}" style="rounded=0;whiteSpace=wrap;html=1;" parent="atugUuBUGDOx-Fq1OL0i-200" vertex="1">
          <mxGeometry x="280" y="320" width="80" height="40" as="geometry" />
        </mxCell>
        <mxCell id="atugUuBUGDOx-Fq1OL0i-135" value="{Y or N}" style="rounded=0;whiteSpace=wrap;html=1;" parent="atugUuBUGDOx-Fq1OL0i-200" vertex="1">
          <mxGeometry x="360" y="320" width="80" height="40" as="geometry" />
        </mxCell>
        <mxCell id="atugUuBUGDOx-Fq1OL0i-136" value="TARGET ENV:" style="rounded=0;whiteSpace=wrap;html=1;fillColor=#dae8fc;strokeColor=#6c8ebf;fontColor=#000066;fontStyle=1" parent="atugUuBUGDOx-Fq1OL0i-200" vertex="1">
          <mxGeometry x="520" y="280" width="160" height="40" as="geometry" />
        </mxCell>
        <mxCell id="atugUuBUGDOx-Fq1OL0i-137" value="{enr_id}" style="rounded=1;whiteSpace=wrap;html=1;" parent="atugUuBUGDOx-Fq1OL0i-200" vertex="1">
          <mxGeometry x="680" y="280" width="120" height="40" as="geometry" />
        </mxCell>
        <mxCell id="atugUuBUGDOx-Fq1OL0i-138" value="BREADCRUMB:" style="rounded=0;whiteSpace=wrap;html=1;fillColor=#dae8fc;strokeColor=#6c8ebf;fontColor=#000066;fontStyle=1" parent="atugUuBUGDOx-Fq1OL0i-200" vertex="1">
          <mxGeometry width="160" height="40" as="geometry" />
        </mxCell>
        <mxCell id="atugUuBUGDOx-Fq1OL0i-139" value="{migration} &amp;gt; {plan} &amp;gt;&amp;nbsp;{iteration} &amp;gt;&amp;nbsp;{sequence} &amp;gt;&amp;nbsp;{phase}" style="rounded=1;whiteSpace=wrap;html=1;" parent="atugUuBUGDOx-Fq1OL0i-200" vertex="1">
          <mxGeometry x="160" width="680" height="40" as="geometry" />
        </mxCell>
        <mxCell id="atugUuBUGDOx-Fq1OL0i-140" value="PRIMARY TEAM" style="rounded=0;whiteSpace=wrap;html=1;fillColor=#dae8fc;strokeColor=#6c8ebf;fontColor=#000066;fontStyle=1" parent="atugUuBUGDOx-Fq1OL0i-200" vertex="1">
          <mxGeometry y="400" width="160" height="40" as="geometry" />
        </mxCell>
        <mxCell id="atugUuBUGDOx-Fq1OL0i-141" value="IMPACTED TEAMS" style="rounded=0;whiteSpace=wrap;html=1;fillColor=#dae8fc;strokeColor=#6c8ebf;fontColor=#000066;fontStyle=1" parent="atugUuBUGDOx-Fq1OL0i-200" vertex="1">
          <mxGeometry x="360" y="400" width="160" height="40" as="geometry" />
        </mxCell>
        <mxCell id="atugUuBUGDOx-Fq1OL0i-142" value="{tms_id_owner}" style="rounded=1;whiteSpace=wrap;html=1;" parent="atugUuBUGDOx-Fq1OL0i-200" vertex="1">
          <mxGeometry x="160" y="400" width="160" height="40" as="geometry" />
        </mxCell>
        <mxCell id="atugUuBUGDOx-Fq1OL0i-143" value="Array of {tms_id} from&amp;nbsp;steps_master_stm_x_teams_tms_impacted" style="rounded=1;whiteSpace=wrap;html=1;" parent="atugUuBUGDOx-Fq1OL0i-200" vertex="1">
          <mxGeometry x="520" y="400" width="280" height="40" as="geometry" />
        </mxCell>
        <mxCell id="atugUuBUGDOx-Fq1OL0i-144" value="STATUS" style="rounded=0;whiteSpace=wrap;html=1;fillColor=#dae8fc;strokeColor=#6c8ebf;fontColor=#000066;fontStyle=1" parent="atugUuBUGDOx-Fq1OL0i-200" vertex="1">
          <mxGeometry y="160" width="160" height="40" as="geometry" />
        </mxCell>
        <mxCell id="atugUuBUGDOx-Fq1OL0i-145" value="ALLOCATED DURATION" style="rounded=0;whiteSpace=wrap;html=1;fillColor=#dae8fc;strokeColor=#6c8ebf;fontColor=#000066;fontStyle=1" parent="atugUuBUGDOx-Fq1OL0i-200" vertex="1">
          <mxGeometry x="360" y="480" width="160" height="40" as="geometry" />
        </mxCell>
        <mxCell id="atugUuBUGDOx-Fq1OL0i-146" value="{sti_duration_minutes}" style="rounded=1;whiteSpace=wrap;html=1;" parent="atugUuBUGDOx-Fq1OL0i-200" vertex="1">
          <mxGeometry x="520" y="480" width="160" height="40" as="geometry" />
        </mxCell>
        <mxCell id="atugUuBUGDOx-Fq1OL0i-147" value="START TIME" style="rounded=0;whiteSpace=wrap;html=1;fillColor=#dae8fc;strokeColor=#6c8ebf;fontColor=#000066;fontStyle=1" parent="atugUuBUGDOx-Fq1OL0i-200" vertex="1">
          <mxGeometry y="560" width="160" height="40" as="geometry" />
        </mxCell>
        <mxCell id="atugUuBUGDOx-Fq1OL0i-148" value="END TIME" style="rounded=0;whiteSpace=wrap;html=1;fillColor=#dae8fc;strokeColor=#6c8ebf;fontColor=#000066;fontStyle=1" parent="atugUuBUGDOx-Fq1OL0i-200" vertex="1">
          <mxGeometry x="320" y="560" width="160" height="40" as="geometry" />
        </mxCell>
        <mxCell id="atugUuBUGDOx-Fq1OL0i-149" value="ACTUAL DURATION" style="rounded=0;whiteSpace=wrap;html=1;fillColor=#dae8fc;strokeColor=#6c8ebf;fontColor=#000066;fontStyle=1" parent="atugUuBUGDOx-Fq1OL0i-200" vertex="1">
          <mxGeometry x="640" y="560" width="160" height="40" as="geometry" />
        </mxCell>
        <mxCell id="atugUuBUGDOx-Fq1OL0i-150" value="{sti_start_time}" style="rounded=1;whiteSpace=wrap;html=1;" parent="atugUuBUGDOx-Fq1OL0i-200" vertex="1">
          <mxGeometry x="160" y="560" width="120" height="40" as="geometry" />
        </mxCell>
        <mxCell id="atugUuBUGDOx-Fq1OL0i-151" value="{sti_end_time}" style="rounded=1;whiteSpace=wrap;html=1;" parent="atugUuBUGDOx-Fq1OL0i-200" vertex="1">
          <mxGeometry x="480" y="560" width="120" height="40" as="geometry" />
        </mxCell>
        <mxCell id="atugUuBUGDOx-Fq1OL0i-152" value="calculated" style="rounded=1;whiteSpace=wrap;html=1;" parent="atugUuBUGDOx-Fq1OL0i-200" vertex="1">
          <mxGeometry x="800" y="560" width="120" height="40" as="geometry" />
        </mxCell>
        <mxCell id="atugUuBUGDOx-Fq1OL0i-153" value="DESCRIPTION" style="rounded=0;whiteSpace=wrap;html=1;fillColor=#dae8fc;strokeColor=#6c8ebf;fontColor=#000066;fontStyle=1" parent="atugUuBUGDOx-Fq1OL0i-200" vertex="1">
          <mxGeometry y="640" width="160" height="40" as="geometry" />
        </mxCell>
        <mxCell id="atugUuBUGDOx-Fq1OL0i-154" value="{sti_description}" style="rounded=1;whiteSpace=wrap;html=1;" parent="atugUuBUGDOx-Fq1OL0i-200" vertex="1">
          <mxGeometry x="160" y="640" width="800" height="160" as="geometry" />
        </mxCell>
        <mxCell id="atugUuBUGDOx-Fq1OL0i-155" value="INSTRUCTIONS (by order)" style="rounded=0;whiteSpace=wrap;html=1;fillColor=#dae8fc;strokeColor=#6c8ebf;fontColor=#000066;fontStyle=1" parent="atugUuBUGDOx-Fq1OL0i-200" vertex="1">
          <mxGeometry y="840" width="240" height="40" as="geometry" />
        </mxCell>
        <mxCell id="atugUuBUGDOx-Fq1OL0i-156" value="##" style="rounded=0;whiteSpace=wrap;html=1;fillColor=#dae8fc;strokeColor=#6c8ebf;fontColor=#000066;fontStyle=1" parent="atugUuBUGDOx-Fq1OL0i-200" vertex="1">
          <mxGeometry y="880" width="80" height="40" as="geometry" />
        </mxCell>
        <mxCell id="atugUuBUGDOx-Fq1OL0i-157" value="Description" style="rounded=0;whiteSpace=wrap;html=1;fillColor=#dae8fc;strokeColor=#6c8ebf;fontColor=#000066;fontStyle=1" parent="atugUuBUGDOx-Fq1OL0i-200" vertex="1">
          <mxGeometry x="80" y="880" width="400" height="40" as="geometry" />
        </mxCell>
        <mxCell id="atugUuBUGDOx-Fq1OL0i-158" value="Team" style="rounded=0;whiteSpace=wrap;html=1;fillColor=#dae8fc;strokeColor=#6c8ebf;fontColor=#000066;fontStyle=1" parent="atugUuBUGDOx-Fq1OL0i-200" vertex="1">
          <mxGeometry x="480" y="880" width="120" height="40" as="geometry" />
        </mxCell>
        <mxCell id="atugUuBUGDOx-Fq1OL0i-159" value="Control" style="rounded=0;whiteSpace=wrap;html=1;fillColor=#dae8fc;strokeColor=#6c8ebf;fontColor=#000066;fontStyle=1" parent="atugUuBUGDOx-Fq1OL0i-200" vertex="1">
          <mxGeometry x="600" y="880" width="120" height="40" as="geometry" />
        </mxCell>
        <mxCell id="atugUuBUGDOx-Fq1OL0i-160" value="Duration" style="rounded=0;whiteSpace=wrap;html=1;fillColor=#dae8fc;strokeColor=#6c8ebf;fontColor=#000066;fontStyle=1" parent="atugUuBUGDOx-Fq1OL0i-200" vertex="1">
          <mxGeometry x="720" y="880" width="120" height="40" as="geometry" />
        </mxCell>
        <mxCell id="atugUuBUGDOx-Fq1OL0i-161" value="Done Check" style="rounded=0;whiteSpace=wrap;html=1;fillColor=#dae8fc;strokeColor=#6c8ebf;fontColor=#000066;fontStyle=1" parent="atugUuBUGDOx-Fq1OL0i-200" vertex="1">
          <mxGeometry x="840" y="880" width="120" height="40" as="geometry" />
        </mxCell>
        <mxCell id="atugUuBUGDOx-Fq1OL0i-162" value="{ini_order}" style="rounded=1;whiteSpace=wrap;html=1;" parent="atugUuBUGDOx-Fq1OL0i-200" vertex="1">
          <mxGeometry y="920" width="80" height="40" as="geometry" />
        </mxCell>
        <mxCell id="atugUuBUGDOx-Fq1OL0i-163" value="{ini_body}" style="rounded=1;whiteSpace=wrap;html=1;" parent="atugUuBUGDOx-Fq1OL0i-200" vertex="1">
          <mxGeometry x="80" y="920" width="400" height="40" as="geometry" />
        </mxCell>
        <mxCell id="atugUuBUGDOx-Fq1OL0i-164" value="{tms_id}" style="rounded=1;whiteSpace=wrap;html=1;" parent="atugUuBUGDOx-Fq1OL0i-200" vertex="1">
          <mxGeometry x="480" y="920" width="120" height="40" as="geometry" />
        </mxCell>
        <mxCell id="atugUuBUGDOx-Fq1OL0i-165" value="{cti_id}" style="rounded=1;whiteSpace=wrap;html=1;" parent="atugUuBUGDOx-Fq1OL0i-200" vertex="1">
          <mxGeometry x="600" y="920" width="120" height="40" as="geometry" />
        </mxCell>
        <mxCell id="atugUuBUGDOx-Fq1OL0i-166" value="{ini_duration_minutes}" style="rounded=1;whiteSpace=wrap;html=1;" parent="atugUuBUGDOx-Fq1OL0i-200" vertex="1">
          <mxGeometry x="720" y="920" width="120" height="40" as="geometry" />
        </mxCell>
        <mxCell id="atugUuBUGDOx-Fq1OL0i-167" value="PREDECESSOR" style="rounded=0;whiteSpace=wrap;html=1;fillColor=#dae8fc;strokeColor=#6c8ebf;fontColor=#000066;fontStyle=1" parent="atugUuBUGDOx-Fq1OL0i-200" vertex="1">
          <mxGeometry x="360" y="160" width="160" height="40" as="geometry" />
        </mxCell>
        <mxCell id="atugUuBUGDOx-Fq1OL0i-168" value="{sti_id_predecessor}" style="rounded=1;whiteSpace=wrap;html=1;" parent="atugUuBUGDOx-Fq1OL0i-200" vertex="1">
          <mxGeometry x="520" y="160" width="160" height="40" as="geometry" />
        </mxCell>
        <mxCell id="atugUuBUGDOx-Fq1OL0i-169" value="Predecessor status" style="rounded=1;whiteSpace=wrap;html=1;" parent="atugUuBUGDOx-Fq1OL0i-200" vertex="1">
          <mxGeometry x="680" y="160" width="160" height="40" as="geometry" />
        </mxCell>
        <mxCell id="atugUuBUGDOx-Fq1OL0i-170" value="{ini_order}" style="rounded=1;whiteSpace=wrap;html=1;" parent="atugUuBUGDOx-Fq1OL0i-200" vertex="1">
          <mxGeometry y="960" width="80" height="40" as="geometry" />
        </mxCell>
        <mxCell id="atugUuBUGDOx-Fq1OL0i-171" value="{ini_body}" style="rounded=1;whiteSpace=wrap;html=1;" parent="atugUuBUGDOx-Fq1OL0i-200" vertex="1">
          <mxGeometry x="80" y="960" width="400" height="40" as="geometry" />
        </mxCell>
        <mxCell id="atugUuBUGDOx-Fq1OL0i-172" value="{tms_id}" style="rounded=1;whiteSpace=wrap;html=1;" parent="atugUuBUGDOx-Fq1OL0i-200" vertex="1">
          <mxGeometry x="480" y="960" width="120" height="40" as="geometry" />
        </mxCell>
        <mxCell id="atugUuBUGDOx-Fq1OL0i-173" value="{cti_id}" style="rounded=1;whiteSpace=wrap;html=1;" parent="atugUuBUGDOx-Fq1OL0i-200" vertex="1">
          <mxGeometry x="600" y="960" width="120" height="40" as="geometry" />
        </mxCell>
        <mxCell id="atugUuBUGDOx-Fq1OL0i-174" value="{ini_duration_minutes}" style="rounded=1;whiteSpace=wrap;html=1;" parent="atugUuBUGDOx-Fq1OL0i-200" vertex="1">
          <mxGeometry x="720" y="960" width="120" height="40" as="geometry" />
        </mxCell>
        <mxCell id="atugUuBUGDOx-Fq1OL0i-175" value="{ini_order}" style="rounded=1;whiteSpace=wrap;html=1;" parent="atugUuBUGDOx-Fq1OL0i-200" vertex="1">
          <mxGeometry y="1000" width="80" height="40" as="geometry" />
        </mxCell>
        <mxCell id="atugUuBUGDOx-Fq1OL0i-176" value="{ini_body}" style="rounded=1;whiteSpace=wrap;html=1;" parent="atugUuBUGDOx-Fq1OL0i-200" vertex="1">
          <mxGeometry x="80" y="1000" width="400" height="40" as="geometry" />
        </mxCell>
        <mxCell id="atugUuBUGDOx-Fq1OL0i-177" value="{tms_id}" style="rounded=1;whiteSpace=wrap;html=1;" parent="atugUuBUGDOx-Fq1OL0i-200" vertex="1">
          <mxGeometry x="480" y="1000" width="120" height="40" as="geometry" />
        </mxCell>
        <mxCell id="atugUuBUGDOx-Fq1OL0i-178" value="{cti_id}" style="rounded=1;whiteSpace=wrap;html=1;" parent="atugUuBUGDOx-Fq1OL0i-200" vertex="1">
          <mxGeometry x="600" y="1000" width="120" height="40" as="geometry" />
        </mxCell>
        <mxCell id="atugUuBUGDOx-Fq1OL0i-179" value="{ini_duration_minutes}" style="rounded=1;whiteSpace=wrap;html=1;" parent="atugUuBUGDOx-Fq1OL0i-200" vertex="1">
          <mxGeometry x="720" y="1000" width="120" height="40" as="geometry" />
        </mxCell>
        <mxCell id="atugUuBUGDOx-Fq1OL0i-180" value="COMMENTS (Moest recent first)" style="rounded=0;whiteSpace=wrap;html=1;fillColor=#dae8fc;strokeColor=#6c8ebf;fontColor=#000066;fontStyle=1" parent="atugUuBUGDOx-Fq1OL0i-200" vertex="1">
          <mxGeometry y="1080" width="240" height="40" as="geometry" />
        </mxCell>
        <mxCell id="atugUuBUGDOx-Fq1OL0i-181" value="{comment_body}" style="rounded=1;whiteSpace=wrap;html=1;" parent="atugUuBUGDOx-Fq1OL0i-200" vertex="1">
          <mxGeometry y="1160" width="600" height="80" as="geometry" />
        </mxCell>
        <mxCell id="atugUuBUGDOx-Fq1OL0i-182" value="{created_by}" style="rounded=1;whiteSpace=wrap;html=1;" parent="atugUuBUGDOx-Fq1OL0i-200" vertex="1">
          <mxGeometry x="600" y="1160" width="120" height="40" as="geometry" />
        </mxCell>
        <mxCell id="atugUuBUGDOx-Fq1OL0i-183" value="{created_at}" style="rounded=1;whiteSpace=wrap;html=1;" parent="atugUuBUGDOx-Fq1OL0i-200" vertex="1">
          <mxGeometry x="720" y="1160" width="120" height="40" as="geometry" />
        </mxCell>
        <mxCell id="atugUuBUGDOx-Fq1OL0i-184" value="{updated_by}" style="rounded=1;whiteSpace=wrap;html=1;" parent="atugUuBUGDOx-Fq1OL0i-200" vertex="1">
          <mxGeometry x="600" y="1200" width="120" height="40" as="geometry" />
        </mxCell>
        <mxCell id="atugUuBUGDOx-Fq1OL0i-185" value="{updated_at}" style="rounded=1;whiteSpace=wrap;html=1;" parent="atugUuBUGDOx-Fq1OL0i-200" vertex="1">
          <mxGeometry x="720" y="1200" width="120" height="40" as="geometry" />
        </mxCell>
        <mxCell id="atugUuBUGDOx-Fq1OL0i-186" value="{comment_body}" style="rounded=1;whiteSpace=wrap;html=1;" parent="atugUuBUGDOx-Fq1OL0i-200" vertex="1">
          <mxGeometry y="1280" width="600" height="80" as="geometry" />
        </mxCell>
        <mxCell id="atugUuBUGDOx-Fq1OL0i-187" value="{created_by}" style="rounded=1;whiteSpace=wrap;html=1;" parent="atugUuBUGDOx-Fq1OL0i-200" vertex="1">
          <mxGeometry x="600" y="1280" width="120" height="40" as="geometry" />
        </mxCell>
        <mxCell id="atugUuBUGDOx-Fq1OL0i-188" value="{created_at}" style="rounded=1;whiteSpace=wrap;html=1;" parent="atugUuBUGDOx-Fq1OL0i-200" vertex="1">
          <mxGeometry x="720" y="1280" width="120" height="40" as="geometry" />
        </mxCell>
        <mxCell id="atugUuBUGDOx-Fq1OL0i-189" value="{updated_by}" style="rounded=1;whiteSpace=wrap;html=1;" parent="atugUuBUGDOx-Fq1OL0i-200" vertex="1">
          <mxGeometry x="600" y="1320" width="120" height="40" as="geometry" />
        </mxCell>
        <mxCell id="atugUuBUGDOx-Fq1OL0i-190" value="{updated_at}" style="rounded=1;whiteSpace=wrap;html=1;" parent="atugUuBUGDOx-Fq1OL0i-200" vertex="1">
          <mxGeometry x="720" y="1320" width="120" height="40" as="geometry" />
        </mxCell>
        <mxCell id="atugUuBUGDOx-Fq1OL0i-191" value="NEW COMMENT" style="rounded=1;whiteSpace=wrap;html=1;fillColor=#d80073;strokeColor=#A50040;fontColor=#ffffff;fontStyle=1" parent="atugUuBUGDOx-Fq1OL0i-200" vertex="1">
          <mxGeometry x="280" y="1080" width="160" height="40" as="geometry" />
        </mxCell>
        <mxCell id="atugUuBUGDOx-Fq1OL0i-192" value="EDIT" style="rounded=1;whiteSpace=wrap;html=1;fillColor=#d80073;strokeColor=#A50040;fontColor=#ffffff;fontStyle=1" parent="atugUuBUGDOx-Fq1OL0i-200" vertex="1">
          <mxGeometry x="860" y="1160" width="100" height="40" as="geometry" />
        </mxCell>
        <mxCell id="atugUuBUGDOx-Fq1OL0i-193" value="DELETE" style="rounded=1;whiteSpace=wrap;html=1;fillColor=#d80073;strokeColor=#A50040;fontColor=#ffffff;fontStyle=1" parent="atugUuBUGDOx-Fq1OL0i-200" vertex="1">
          <mxGeometry x="860" y="1200" width="100" height="40" as="geometry" />
        </mxCell>
        <mxCell id="atugUuBUGDOx-Fq1OL0i-194" value="EDIT" style="rounded=1;whiteSpace=wrap;html=1;fillColor=#d80073;strokeColor=#A50040;fontColor=#ffffff;fontStyle=1" parent="atugUuBUGDOx-Fq1OL0i-200" vertex="1">
          <mxGeometry x="860" y="1280" width="100" height="40" as="geometry" />
        </mxCell>
        <mxCell id="atugUuBUGDOx-Fq1OL0i-195" value="DELETE" style="rounded=1;whiteSpace=wrap;html=1;fillColor=#d80073;strokeColor=#A50040;fontColor=#ffffff;fontStyle=1" parent="atugUuBUGDOx-Fq1OL0i-200" vertex="1">
          <mxGeometry x="860" y="1320" width="100" height="40" as="geometry" />
        </mxCell>
        <mxCell id="atugUuBUGDOx-Fq1OL0i-196" value="{STI_STATUS}" style="rounded=1;whiteSpace=wrap;html=1;fillColor=#d80073;strokeColor=#A50040;fontColor=#ffffff;fontStyle=1" parent="atugUuBUGDOx-Fq1OL0i-200" vertex="1">
          <mxGeometry x="160" y="160" width="160" height="40" as="geometry" />
        </mxCell>
        <mxCell id="atugUuBUGDOx-Fq1OL0i-197" value="{INI_IS_COMPLETE}" style="rounded=1;whiteSpace=wrap;html=1;fillColor=#d80073;strokeColor=#A50040;fontColor=#ffffff;fontStyle=1" parent="atugUuBUGDOx-Fq1OL0i-200" vertex="1">
          <mxGeometry x="840" y="920" width="120" height="40" as="geometry" />
        </mxCell>
        <mxCell id="atugUuBUGDOx-Fq1OL0i-198" value="{INI_IS_COMPLETE}" style="rounded=1;whiteSpace=wrap;html=1;fillColor=#d80073;strokeColor=#A50040;fontColor=#ffffff;fontStyle=1" parent="atugUuBUGDOx-Fq1OL0i-200" vertex="1">
          <mxGeometry x="840" y="960" width="120" height="40" as="geometry" />
        </mxCell>
        <mxCell id="atugUuBUGDOx-Fq1OL0i-199" value="{INI_IS_COMPLETE}" style="rounded=1;whiteSpace=wrap;html=1;fillColor=#d80073;strokeColor=#A50040;fontColor=#ffffff;fontStyle=1" parent="atugUuBUGDOx-Fq1OL0i-200" vertex="1">
          <mxGeometry x="840" y="1000" width="120" height="40" as="geometry" />
        </mxCell>
        <mxCell id="atugUuBUGDOx-Fq1OL0i-201" value="PILOTS&amp;nbsp; VIEW&lt;br&gt;(TBD)" style="rounded=0;whiteSpace=wrap;html=1;fillColor=#f5f5f5;gradientColor=#b3b3b3;strokeColor=#FF00FF;fontColor=#000000;fontSize=18;verticalAlign=top;fontStyle=1;labelBorderColor=none;strokeWidth=6;dashed=1;dashPattern=8 8;" parent="1" vertex="1">
          <mxGeometry x="1440" y="40" width="640" height="400" as="geometry" />
        </mxCell>
        <mxCell id="atugUuBUGDOx-Fq1OL0i-202" value="STEP AUTHORING VIEW&lt;br&gt;(TBD)" style="rounded=0;whiteSpace=wrap;html=1;fillColor=#f5f5f5;gradientColor=#b3b3b3;strokeColor=#FF00FF;fontColor=#000000;fontSize=18;verticalAlign=top;fontStyle=1;labelBorderColor=none;strokeWidth=6;dashed=1;dashPattern=8 8;" parent="1" vertex="1">
          <mxGeometry x="2120" y="40" width="640" height="400" as="geometry" />
        </mxCell>
        <mxCell id="atugUuBUGDOx-Fq1OL0i-203" value="MACRO-PLANNING VIEW&lt;br&gt;(TBD)" style="rounded=0;whiteSpace=wrap;html=1;fillColor=#f5f5f5;gradientColor=#b3b3b3;strokeColor=#FF00FF;fontColor=#000000;fontSize=18;verticalAlign=top;fontStyle=1;labelBorderColor=none;strokeWidth=6;dashed=1;dashPattern=8 8;" parent="1" vertex="1">
          <mxGeometry x="2800" y="40" width="640" height="400" as="geometry" />
        </mxCell>
      </root>
    </mxGraphModel>
  </diagram>
</mxfile>
